<svg width="25" height="23" fill="none" xmlns="http://www.w3.org/2000/svg"><mask id="mask0_75929_19" style="mask-type:alpha" maskUnits="userSpaceOnUse" x="0" y="0" width="25" height="23"><path fill="#D9D9D9" d="M0 0h25v23H0z"/></mask><g mask="url(#mask0_75929_19)"><path fill-rule="evenodd" clip-rule="evenodd" d="M3 0h17c1.65 0 3 1.35 3 3v17c0 1.65-1.35 3-3 3H3c-1.65 0-3-1.35-3-3V3c0-1.65 1.35-3 3-3zm18 3c0-.542-.458-1-1-1H3c-.542 0-1 .458-1 1v17c0 .542.458 1 1 1h17c.542 0 1-.458 1-1V3z" fill="#4D4D4D"/></g></svg>