<svg xmlns="http://www.w3.org/2000/svg"><style>:root svg:not(:target){display:none}</style><svg viewBox="0 0 15 15" fill="none" id="cart">
<path d="M4.5 15C5.32843 15 6 14.3284 6 13.5C6 12.6716 5.32843 12 4.5 12C3.67157 12 3 12.6716 3 13.5C3 14.3284 3.67157 15 4.5 15Z" fill="#A6A6A6"></path>
<path d="M12.5 15C13.3284 15 14 14.3284 14 13.5C14 12.6716 13.3284 12 12.5 12C11.6716 12 11 12.6716 11 13.5C11 14.3284 11.6716 15 12.5 15Z" fill="#A6A6A6"></path>
<path d="M15 2H4.07L3.648 0H0V2H2.031L4.016 11H15V9H9.441L15 6.951V2Z" fill="#A6A6A6"></path>
</svg><svg viewBox="0 0 25 23" fill="none" id="checkbox-off">
<mask id="checkbox-off_0" style="mask-type:alpha" maskUnits="userSpaceOnUse" x="0" y="0" width="25" height="23">
<rect width="25" height="23" fill="#D9D9D9"></rect>
</mask>
<g mask="url(#checkbox-off_0)">
<path fill-rule="evenodd" clip-rule="evenodd" d="M3 0H20C21.65 0 23 1.35 23 3V20C23 21.65 21.65 23 20 23H3C1.35 23 0 21.65 0 20V3C0 1.35 1.35 0 3 0ZM21 3C21 2.458 20.542 2 20 2H3C2.458 2 2 2.458 2 3V20C2 20.542 2.458 21 3 21H20C20.542 21 21 20.542 21 20V3Z" fill="#4D4D4D"></path>
</g>
</svg><svg viewBox="0 0 25 23" fill="none" id="checkbox-on">
<path d="M6.95925 8.48591L4.25684 11.3149L11.6916 19.0979L25.0002 5.16591L22.2988 2.33691L11.6916 13.4389L6.95925 8.48591Z" fill="#4D4D4D"></path>
<path d="M21 20C21 20.542 20.542 21 20 21H3C2.458 21 2 20.542 2 20V3C2 2.458 2.458 2 3 2H19.908L21.493 0.415C21.041 0.146542 20.5257 0.00329969 20 0H3C1.35 0 0 1.35 0 3V20C0 21.65 1.35 23 3 23H20C21.65 23 23 21.65 23 20V10.171L21 12.171V20Z" fill="#4D4D4D"></path>
</svg><svg viewBox="0 0 21 21" fill="none" id="close-cross">
<path d="M13.3299 10.5005L20.7072 3.12321C21.0963 2.7317 21.0963 2.09952 20.7072 1.70801L19.292 0.291799C18.9005 -0.0972665 18.2683 -0.0972665 17.8768 0.291799L10.4995 7.67009L3.12221 0.2928C2.7307 -0.0962657 2.09852 -0.0962657 1.70701 0.2928L0.291799 1.70801C-0.0972665 2.09952 -0.0972665 2.7317 0.291799 3.12321L7.66909 10.5005L0.291799 17.8778C-0.0972665 18.2693 -0.0972665 18.9015 0.291799 19.293L1.70801 20.7082C2.09952 21.0973 2.7317 21.0973 3.12321 20.7082L10.5005 13.3309L17.8778 20.7082C18.2693 21.0973 18.9015 21.0973 19.293 20.7082L20.7082 19.293C21.0973 18.9015 21.0973 18.2693 20.7082 17.8778L13.3299 10.5005Z" fill="#FB565A"></path>
</svg><svg viewBox="0 0 25 25" fill="none" id="radio-off">
<path fill-rule="evenodd" clip-rule="evenodd" d="M0 12.5C0 5.597 5.597 0 12.5 0C19.403 0 25 5.597 25 12.5C25 19.403 19.403 25 12.5 25C5.597 25 0 19.403 0 12.5ZM21 12.5C21 7.813 17.187 4 12.5 4C7.813 4 4 7.813 4 12.5C4 17.187 7.813 21 12.5 21C17.187 21 21 17.187 21 12.5Z" fill="#4D4D4D"></path>
</svg><svg viewBox="0 0 25 25" fill="none" id="radio-on">
<path fill-rule="evenodd" clip-rule="evenodd" d="M0 12.5C0 5.597 5.597 0 12.5 0C19.403 0 25 5.597 25 12.5C25 19.403 19.403 25 12.5 25C5.597 25 0 19.403 0 12.5ZM21 12.5C21 7.813 17.187 4 12.5 4C7.813 4 4 7.813 4 12.5C4 17.187 7.813 21 12.5 21C17.187 21 21 17.187 21 12.5Z" fill="#4D4D4D"></path>
<path d="M12.5 17C14.9853 17 17 14.9853 17 12.5C17 10.0147 14.9853 8 12.5 8C10.0147 8 8 10.0147 8 12.5C8 14.9853 10.0147 17 12.5 17Z" fill="#4D4D4D"></path>
</svg><svg viewBox="0 0 12 22" fill="none" id="socials_facebook-icon">
<path d="M12 4V0H8C5.79086 0 4 1.79086 4 4V8H0V12H4V22H8V12H12V8H8V4H12Z" fill="white"></path>
</svg><svg viewBox="0 0 21 21" fill="none" id="socials_instagram-icon">
<path fill-rule="evenodd" clip-rule="evenodd" d="M3 0H18C19.65 0 21 1.35 21 3V18C21 19.65 19.65 21 18 21H3C1.35 21 0 19.65 0 18V3C0 1.35 1.35 0 3 0ZM14 10.5C14 8.57 12.43 7 10.5 7C8.57 7 7 8.57 7 10.5C7 12.43 8.57 14 10.5 14C12.43 14 14 12.43 14 10.5ZM3 18V9H4.181C4.0626 9.49127 4.00186 9.99467 4 10.5C4 14.0899 6.91015 17 10.5 17C14.0899 17 17 14.0899 17 10.5C16.9986 9.99464 16.9379 9.49118 16.819 9H18V18H3ZM14 7H18V3H14V7Z" fill="white"></path>
</svg><svg viewBox="0 0 27 15" fill="none" id="socials_vk-icon">
<path d="M16.138 11.51C17.094 11.201 18.318 13.55 19.621 14.449C20.599 15.13 21.348 14.983 21.348 14.983L24.821 14.933C24.821 14.933 26.636 14.821 25.778 13.379C25.707 13.259 25.275 12.31 23.193 10.357C21.016 8.31404 21.311 8.64504 23.932 5.11304C25.529 2.96004 26.168 1.64504 25.968 1.08504C25.776 0.546037 24.603 0.686037 24.603 0.686037L20.69 0.713037C20.309 0.714037 19.986 0.832037 19.839 1.22804C19.836 1.23204 19.218 2.89404 18.394 4.30704C16.653 7.29604 15.958 7.45504 15.67 7.26804C15.009 6.83504 15.176 5.53104 15.176 4.60404C15.176 1.70704 15.608 0.499037 14.33 0.187037C13.903 0.0830374 13.591 0.0150374 12.502 0.00503741C11.11 -0.0159626 9.92797 0.00503743 9.25797 0.334037C8.81297 0.557037 8.47197 1.04604 8.67897 1.07404C8.93897 1.10904 9.52197 1.23404 9.83397 1.66004C10.235 2.21204 10.223 3.44904 10.223 3.44904C10.223 3.44904 10.452 6.86004 9.68297 7.28304C9.15497 7.57304 8.43297 6.98104 6.87997 4.26704C6.08697 2.87904 5.48797 1.34504 5.48797 1.34504C5.48797 1.34504 5.37197 1.06004 5.16197 0.904037C4.91197 0.719037 4.56197 0.660037 4.56197 0.660037L0.84797 0.684037C0.84797 0.684037 0.28997 0.700037 0.0849697 0.946037C-0.0970303 1.16404 0.0699697 1.61404 0.0699697 1.61404C0.0699697 1.61404 2.97897 8.49504 6.27297 11.961C9.29297 15.143 12.725 14.932 12.725 14.932H14.28C14.28 14.932 14.749 14.878 14.989 14.62C15.213 14.38 15.203 13.929 15.203 13.929C15.203 13.929 15.172 11.82 16.138 11.51Z" fill="white"></path>
</svg></svg>